<svg width="18" height="20" viewBox="0 0 18 20" fill="none" xmlns="http://www.w3.org/2000/svg">
<path d="M15.667 2.49992H14.8337V1.66659C14.8337 1.20825 14.4587 0.833252 14.0003 0.833252C13.542 0.833252 13.167 1.20825 13.167 1.66659V2.49992H4.83366V1.66659C4.83366 1.20825 4.45866 0.833252 4.00033 0.833252C3.54199 0.833252 3.16699 1.20825 3.16699 1.66659V2.49992H2.33366C1.41699 2.49992 0.666992 3.24992 0.666992 4.16658V17.4999C0.666992 18.4166 1.41699 19.1666 2.33366 19.1666H15.667C16.5837 19.1666 17.3337 18.4166 17.3337 17.4999V4.16658C17.3337 3.24992 16.5837 2.49992 15.667 2.49992ZM14.8337 17.4999H3.16699C2.70866 17.4999 2.33366 17.1249 2.33366 16.6666V6.66658H15.667V16.6666C15.667 17.1249 15.292 17.4999 14.8337 17.4999Z" fill="#777777"/>
</svg>
