<svg width="18" height="18" viewBox="0 0 18 18" fill="none" xmlns="http://www.w3.org/2000/svg">
<path d="M8.99199 0.666748C4.39199 0.666748 0.666992 4.40008 0.666992 9.00008C0.666992 13.6001 4.39199 17.3334 8.99199 17.3334C13.6003 17.3334 17.3337 13.6001 17.3337 9.00008C17.3337 4.40008 13.6003 0.666748 8.99199 0.666748ZM9.00033 15.6667C5.31699 15.6667 2.33366 12.6834 2.33366 9.00008C2.33366 5.31675 5.31699 2.33341 9.00033 2.33341C12.6837 2.33341 15.667 5.31675 15.667 9.00008C15.667 12.6834 12.6837 15.6667 9.00033 15.6667ZM9.41699 4.83342H8.16699V9.83342L12.542 12.4584L13.167 11.4334L9.41699 9.20842V4.83342Z" fill="#777777"/>
</svg>
