<svg width="24" height="25" viewBox="0 0 24 25" fill="none" xmlns="http://www.w3.org/2000/svg">
<g clip-path="url(#clip0_3791_4962)">
<path d="M18 11.5C18 12.17 18 12.83 18 13.5C19.2 13.5 20.76 13.5 22 13.5C22 12.83 22 12.17 22 11.5C20.76 11.5 19.2 11.5 18 11.5Z" fill="#777777"/>
<path d="M16 18.11C16.96 18.82 18.21 19.76 19.2 20.5C19.6 19.97 20 19.43 20.4 18.9C19.41 18.16 18.16 17.22 17.2 16.5C16.8 17.04 16.4 17.58 16 18.11Z" fill="#777777"/>
<path d="M20.4 6.1C20 5.57 19.6 5.03 19.2 4.5C18.21 5.24 16.96 6.18 16 6.9C16.4 7.43 16.8 7.97 17.2 8.5C18.16 7.78 19.41 6.85 20.4 6.1Z" fill="#777777"/>
<path d="M8 9.5H2V15.5H5V19.5H7V15.5H8L13 18.5V6.5L8 9.5Z" fill="#777777"/>
<path d="M15.5 12.4999C15.5 11.1699 14.92 9.9699 14 9.1499V15.8399C14.92 15.0299 15.5 13.8299 15.5 12.4999Z" fill="#777777"/>
</g>
<defs>
<clipPath id="clip0_3791_4962">
<rect width="24" height="24" fill="white" transform="translate(0 0.5)"/>
</clipPath>
</defs>
</svg>
