<svg width="20" height="21" viewBox="0 0 20 21" fill="none" xmlns="http://www.w3.org/2000/svg">
<path fill-rule="evenodd" clip-rule="evenodd" d="M10 0.5C4.48 0.5 0 4.98 0 10.5C0 16.02 4.48 20.5 10 20.5C15.52 20.5 20 16.02 20 10.5C20 4.98 15.52 0.5 10 0.5ZM14.54 14.35L13.85 15.04C13.46 15.43 12.83 15.43 12.44 15.04L9.39 11.99C8.17 12.42 6.75 12.16 5.77 11.18C4.66 10.07 4.47 8.39 5.18 7.08L7.53 9.43L8.94 8.02L6.58 5.67C7.9 4.96 9.57 5.15 10.68 6.26C11.66 7.24 11.92 8.66 11.49 9.88L14.54 12.93C14.93 13.32 14.93 13.96 14.54 14.35Z" fill="#777777"/>
</svg>
